<mxfile host="app.diagrams.net" agent="Mozilla/5.0 (Windows NT 10.0; Win64; x64) AppleWebKit/537.36 (KHTML, like Gecko) Chrome/134.0.0.0 Safari/537.36" version="26.1.3">
  <diagram name="Página-1" id="vjyivv18IGFN6AD_xEd1">
    <mxGraphModel dx="1114" dy="600" grid="1" gridSize="10" guides="1" tooltips="1" connect="1" arrows="1" fold="1" page="1" pageScale="1" pageWidth="827" pageHeight="1169" math="0" shadow="0">
      <root>
        <mxCell id="0" />
        <mxCell id="1" parent="0" />
        <mxCell id="tQYcQKKl7BU8nWXYsCcV-1" value="&lt;div&gt;DATA&lt;/div&gt;&lt;div&gt;WAREHOUSE&lt;/div&gt;" style="rounded=0;whiteSpace=wrap;html=1;" vertex="1" parent="1">
          <mxGeometry x="320" y="1050" width="170" height="140" as="geometry" />
        </mxCell>
        <mxCell id="tQYcQKKl7BU8nWXYsCcV-2" value="" style="endArrow=classic;html=1;rounded=0;" edge="1" parent="1">
          <mxGeometry width="50" height="50" relative="1" as="geometry">
            <mxPoint x="490" y="1080" as="sourcePoint" />
            <mxPoint x="600" y="1010" as="targetPoint" />
          </mxGeometry>
        </mxCell>
        <mxCell id="tQYcQKKl7BU8nWXYsCcV-3" value="" style="endArrow=classic;html=1;rounded=0;exitX=1.006;exitY=0.907;exitDx=0;exitDy=0;exitPerimeter=0;" edge="1" parent="1" source="tQYcQKKl7BU8nWXYsCcV-1">
          <mxGeometry width="50" height="50" relative="1" as="geometry">
            <mxPoint x="490" y="1180" as="sourcePoint" />
            <mxPoint x="600" y="1270.02" as="targetPoint" />
          </mxGeometry>
        </mxCell>
        <mxCell id="tQYcQKKl7BU8nWXYsCcV-4" value="Generación de informes y análisis visuales para apoyar la toma de decisiones." style="rounded=0;whiteSpace=wrap;html=1;" vertex="1" parent="1">
          <mxGeometry x="600" y="1220" width="160" height="140" as="geometry" />
        </mxCell>
        <mxCell id="tQYcQKKl7BU8nWXYsCcV-5" value="Modelos estadísticos y análisis predictivos para descubrir patrones." style="rounded=0;whiteSpace=wrap;html=1;" vertex="1" parent="1">
          <mxGeometry x="600" y="910" width="160" height="140" as="geometry" />
        </mxCell>
        <mxCell id="tQYcQKKl7BU8nWXYsCcV-6" value="Garantiza que los datos sean completos, precisos y consistentes." style="rounded=0;whiteSpace=wrap;html=1;" vertex="1" parent="1">
          <mxGeometry x="80" y="1230" width="150" height="120" as="geometry" />
        </mxCell>
        <mxCell id="tQYcQKKl7BU8nWXYsCcV-7" value="&lt;div&gt;&lt;div&gt;&lt;span style=&quot;background-color: transparent; color: light-dark(rgb(0, 0, 0), rgb(255, 255, 255));&quot;&gt;Proceso de extracción, transformación y carga de datos hacia el Data Warehouse.&lt;/span&gt;&lt;/div&gt;&lt;div&gt;&lt;span style=&quot;background-color: transparent; color: light-dark(rgb(0, 0, 0), rgb(255, 255, 255));&quot;&gt;&lt;br&gt;&lt;/span&gt;&lt;/div&gt;&lt;div&gt;&lt;span style=&quot;background-color: transparent; color: light-dark(rgb(0, 0, 0), rgb(255, 255, 255));&quot;&gt;Limpia y estructura los datos para su análisis.&lt;/span&gt;&lt;/div&gt;&lt;/div&gt;" style="rounded=0;whiteSpace=wrap;html=1;" vertex="1" parent="1">
          <mxGeometry x="80" y="910" width="150" height="120" as="geometry" />
        </mxCell>
        <mxCell id="tQYcQKKl7BU8nWXYsCcV-8" value="DATA SCIENCE" style="rounded=0;whiteSpace=wrap;html=1;" vertex="1" parent="1">
          <mxGeometry x="600" y="1200" width="160" height="20" as="geometry" />
        </mxCell>
        <mxCell id="tQYcQKKl7BU8nWXYsCcV-9" value="(Extract, Transform, Load&lt;div&gt;(ETL)&lt;/div&gt;" style="rounded=0;whiteSpace=wrap;html=1;" vertex="1" parent="1">
          <mxGeometry x="80" y="880" width="150" height="30" as="geometry" />
        </mxCell>
        <mxCell id="tQYcQKKl7BU8nWXYsCcV-10" value="BUSINESS INTELLIGENCE" style="rounded=0;whiteSpace=wrap;html=1;" vertex="1" parent="1">
          <mxGeometry x="600" y="880" width="160" height="30" as="geometry" />
        </mxCell>
        <mxCell id="tQYcQKKl7BU8nWXYsCcV-11" value="DATA QUALITY" style="rounded=0;whiteSpace=wrap;html=1;" vertex="1" parent="1">
          <mxGeometry x="80" y="1210" width="150" height="20" as="geometry" />
        </mxCell>
        <mxCell id="tQYcQKKl7BU8nWXYsCcV-12" value="" style="endArrow=classic;html=1;rounded=0;entryX=1;entryY=0.75;entryDx=0;entryDy=0;" edge="1" parent="1" target="tQYcQKKl7BU8nWXYsCcV-7">
          <mxGeometry width="50" height="50" relative="1" as="geometry">
            <mxPoint x="320" y="1090" as="sourcePoint" />
            <mxPoint x="240" y="1020" as="targetPoint" />
          </mxGeometry>
        </mxCell>
        <mxCell id="tQYcQKKl7BU8nWXYsCcV-13" value="" style="endArrow=classic;html=1;rounded=0;exitX=-0.005;exitY=0.899;exitDx=0;exitDy=0;exitPerimeter=0;" edge="1" parent="1" source="tQYcQKKl7BU8nWXYsCcV-1">
          <mxGeometry width="50" height="50" relative="1" as="geometry">
            <mxPoint x="300" y="1190" as="sourcePoint" />
            <mxPoint x="230" y="1260" as="targetPoint" />
          </mxGeometry>
        </mxCell>
      </root>
    </mxGraphModel>
  </diagram>
</mxfile>
